<svg width="240" height="240" viewBox="0 0 240 240" fill="currentColor" xmlns="http://www.w3.org/2000/svg">
<path d="M78.5547 17.5293C83.4626 17.5293 87.4413 21.9982 87.4413 26.9061C87.4413 31.8141 83.4626 35.3025 78.5547 35.3025H72.1192C63.6783 35.3025 59.68 39.9104 59.68 49.565V92.5718C59.68 103.426 55.5792 111.487 47.4903 116.643C45.1847 118.112 45.1034 122.068 47.3809 123.581C55.5422 129.002 59.68 136.876 59.68 147.428V190.654C59.68 199.87 63.6783 204.697 72.1192 204.697H78.5547C83.4626 204.697 87.4413 208.929 87.4413 213.837C87.4413 218.745 83.4626 222.47 78.5547 222.47H68.1209C58.3472 222.47 50.7949 219.179 45.4638 213.035C40.577 207.33 38.1336 199.431 38.1336 189.776V148.525C38.1336 142.161 36.8008 137.553 34.1353 134.701C32.4931 132.847 25.5634 131.468 19.1938 130.517C13.8795 129.724 9.85656 125.289 9.95692 119.916C10.0564 114.591 13.9865 110.126 19.2524 109.329C25.5874 108.37 32.5066 107.022 34.1353 105.298C36.8008 102.226 38.1336 97.6186 38.1336 91.4747V50.4427C38.1336 40.5687 40.577 32.6695 45.4638 26.9645C50.7949 20.6012 58.3472 17.5293 68.1209 17.5293H78.5547Z"/>
<path d="M162.901 222.471C157.993 222.471 154.014 218.002 154.014 213.094C154.014 208.186 157.993 204.697 162.901 204.697H169.336C177.777 204.697 181.776 200.09 181.776 190.435V147.428C181.776 136.574 185.876 128.513 193.965 123.357C196.271 121.888 196.352 117.932 194.075 116.419C185.913 110.998 181.776 103.124 181.776 92.5725V49.3463C181.776 40.1305 177.777 35.3032 169.336 35.3032L162.901 35.3032C157.993 35.3032 154.014 31.0708 154.014 26.1629C154.014 21.255 157.993 17.53 162.901 17.53L173.335 17.53C183.108 17.53 190.661 20.8213 195.992 26.9652C200.879 32.6701 203.322 40.5693 203.322 50.2239V91.4754C203.322 97.8386 204.655 102.447 207.32 105.299C208.921 107.106 214.962 108.505 220.749 109.486C226.047 110.383 230.072 114.823 229.972 120.196C229.872 125.52 225.94 129.98 220.681 130.822C214.929 131.743 208.907 133.022 207.32 134.702C204.655 137.774 203.322 142.381 203.322 148.525V189.557C203.322 199.431 200.879 207.331 195.992 213.036C190.661 219.399 183.108 222.471 173.335 222.471H162.901Z"/>
<path fill-rule="evenodd" clip-rule="evenodd" d="M123.08 92.7859C121.559 91.265 119.093 91.265 117.572 92.786L92.7862 117.572C91.2652 119.093 91.2652 121.559 92.7862 123.08L117.572 147.866C119.093 149.387 121.559 149.387 123.08 147.866L147.866 123.08C149.387 121.559 149.387 119.093 147.866 117.572L123.08 92.7859ZM127.211 74.885C123.409 71.0825 117.244 71.0825 113.441 74.885L74.8853 113.441C71.0828 117.243 71.0828 123.408 74.8853 127.211L113.441 165.767C117.244 169.569 123.409 169.569 127.211 165.767L165.767 127.211C169.57 123.408 169.57 117.243 165.767 113.441L127.211 74.885Z"/>
</svg>
